<mxfile host="app.diagrams.net" modified="2022-10-19T09:58:10.893Z" agent="5.0 (Windows NT 10.0; Win64; x64) AppleWebKit/537.36 (KHTML, like Gecko) Chrome/106.0.0.0 Safari/537.36 Edg/106.0.1370.47" etag="jH_-9TAOtlXbN_6YaWIZ" version="20.4.1" type="github">
  <diagram id="aY5VUldWK6K_nh4r_hBn" name="Page-1">
    <mxGraphModel dx="786" dy="431" grid="1" gridSize="10" guides="1" tooltips="1" connect="1" arrows="1" fold="1" page="1" pageScale="1" pageWidth="850" pageHeight="1100" math="0" shadow="0">
      <root>
        <mxCell id="0" />
        <mxCell id="1" parent="0" />
        <mxCell id="gdZSg_JXIYS8YBM3R42X-3" value="" style="endArrow=classic;html=1;rounded=0;" edge="1" parent="1">
          <mxGeometry width="50" height="50" relative="1" as="geometry">
            <mxPoint x="340" y="50" as="sourcePoint" />
            <mxPoint x="340" y="100" as="targetPoint" />
            <Array as="points">
              <mxPoint x="340" y="70" />
            </Array>
          </mxGeometry>
        </mxCell>
        <mxCell id="gdZSg_JXIYS8YBM3R42X-4" value="clk" style="text;html=1;strokeColor=none;fillColor=none;align=center;verticalAlign=middle;whiteSpace=wrap;rounded=0;" vertex="1" parent="1">
          <mxGeometry x="290" y="60" width="60" height="30" as="geometry" />
        </mxCell>
        <mxCell id="gdZSg_JXIYS8YBM3R42X-5" value="" style="endArrow=classic;html=1;rounded=0;entryX=0.393;entryY=0;entryDx=0;entryDy=0;entryPerimeter=0;" edge="1" parent="1" target="gdZSg_JXIYS8YBM3R42X-1">
          <mxGeometry width="50" height="50" relative="1" as="geometry">
            <mxPoint x="400" y="50" as="sourcePoint" />
            <mxPoint x="445" y="33.571428571428555" as="targetPoint" />
          </mxGeometry>
        </mxCell>
        <mxCell id="gdZSg_JXIYS8YBM3R42X-7" value="rst" style="text;html=1;strokeColor=none;fillColor=none;align=center;verticalAlign=middle;whiteSpace=wrap;rounded=0;" vertex="1" parent="1">
          <mxGeometry x="350" y="60" width="60" height="30" as="geometry" />
        </mxCell>
        <mxCell id="gdZSg_JXIYS8YBM3R42X-9" value="" style="shape=flexArrow;endArrow=classic;html=1;rounded=0;entryX=0.87;entryY=0;entryDx=0;entryDy=0;entryPerimeter=0;fillColor=#000000;strokeColor=none;" edge="1" parent="1" target="gdZSg_JXIYS8YBM3R42X-1">
          <mxGeometry width="50" height="50" relative="1" as="geometry">
            <mxPoint x="670" y="110" as="sourcePoint" />
            <mxPoint x="510" y="50" as="targetPoint" />
            <Array as="points">
              <mxPoint x="670" y="50" />
              <mxPoint x="650.34" y="50" />
              <mxPoint x="510" y="50" />
            </Array>
          </mxGeometry>
        </mxCell>
        <mxCell id="gdZSg_JXIYS8YBM3R42X-11" value="" style="shape=flexArrow;endArrow=classic;html=1;rounded=0;width=11.03448275862069;endSize=5.744827586206897;endWidth=16.527942925089178;entryX=0.25;entryY=1;entryDx=0;entryDy=0;fillColor=#000000;strokeColor=none;" edge="1" parent="1" target="gdZSg_JXIYS8YBM3R42X-13">
          <mxGeometry width="50" height="50" relative="1" as="geometry">
            <mxPoint x="530" y="170" as="sourcePoint" />
            <mxPoint x="660" y="210" as="targetPoint" />
            <Array as="points">
              <mxPoint x="530" y="210" />
              <mxPoint x="560" y="210" />
              <mxPoint x="600" y="210" />
              <mxPoint x="630" y="210" />
            </Array>
          </mxGeometry>
        </mxCell>
        <mxCell id="gdZSg_JXIYS8YBM3R42X-13" value="&lt;font color=&quot;#ff3333&quot;&gt;PCAdder&lt;/font&gt;" style="rounded=0;whiteSpace=wrap;html=1;" vertex="1" parent="1">
          <mxGeometry x="600" y="110" width="120" height="60" as="geometry" />
        </mxCell>
        <mxCell id="gdZSg_JXIYS8YBM3R42X-18" value="" style="group" vertex="1" connectable="0" parent="1">
          <mxGeometry x="240" y="295" width="120" height="60" as="geometry" />
        </mxCell>
        <mxCell id="gdZSg_JXIYS8YBM3R42X-16" value="" style="rounded=0;whiteSpace=wrap;html=1;fontColor=#FF3333;" vertex="1" parent="gdZSg_JXIYS8YBM3R42X-18">
          <mxGeometry x="-10" width="130" height="60" as="geometry" />
        </mxCell>
        <mxCell id="gdZSg_JXIYS8YBM3R42X-17" value="Adder" style="text;html=1;strokeColor=none;fillColor=none;align=center;verticalAlign=middle;whiteSpace=wrap;rounded=0;fontColor=#FF3333;" vertex="1" parent="gdZSg_JXIYS8YBM3R42X-18">
          <mxGeometry x="30" y="15" width="60" height="30" as="geometry" />
        </mxCell>
        <mxCell id="gdZSg_JXIYS8YBM3R42X-39" value="b[63..0]" style="text;html=1;strokeColor=none;fillColor=none;align=center;verticalAlign=middle;whiteSpace=wrap;rounded=0;fontColor=#000000;" vertex="1" parent="gdZSg_JXIYS8YBM3R42X-18">
          <mxGeometry x="60" y="30" width="60" height="30" as="geometry" />
        </mxCell>
        <mxCell id="gdZSg_JXIYS8YBM3R42X-40" value="a[63..0]" style="text;html=1;strokeColor=none;fillColor=none;align=center;verticalAlign=middle;whiteSpace=wrap;rounded=0;fontColor=#000000;" vertex="1" parent="gdZSg_JXIYS8YBM3R42X-18">
          <mxGeometry x="-10" y="30" width="60" height="30" as="geometry" />
        </mxCell>
        <mxCell id="gdZSg_JXIYS8YBM3R42X-41" value="res" style="text;html=1;strokeColor=none;fillColor=none;align=center;verticalAlign=middle;whiteSpace=wrap;rounded=0;fontColor=#000000;" vertex="1" parent="gdZSg_JXIYS8YBM3R42X-18">
          <mxGeometry x="-20" y="-10" width="60" height="30" as="geometry" />
        </mxCell>
        <mxCell id="gdZSg_JXIYS8YBM3R42X-42" value="cf" style="text;html=1;align=center;verticalAlign=middle;resizable=0;points=[];autosize=1;strokeColor=none;fillColor=none;fontColor=#000000;" vertex="1" parent="gdZSg_JXIYS8YBM3R42X-18">
          <mxGeometry x="80" y="-10" width="30" height="30" as="geometry" />
        </mxCell>
        <mxCell id="gdZSg_JXIYS8YBM3R42X-19" value="" style="group" vertex="1" connectable="0" parent="1">
          <mxGeometry x="310" y="100" width="230" height="70" as="geometry" />
        </mxCell>
        <mxCell id="gdZSg_JXIYS8YBM3R42X-1" value="" style="rounded=0;whiteSpace=wrap;html=1;" vertex="1" parent="gdZSg_JXIYS8YBM3R42X-19">
          <mxGeometry width="230" height="70" as="geometry" />
        </mxCell>
        <mxCell id="gdZSg_JXIYS8YBM3R42X-2" value="&lt;font color=&quot;#ff3333&quot;&gt;PC&lt;/font&gt;" style="text;html=1;align=center;verticalAlign=middle;whiteSpace=wrap;rounded=0;" vertex="1" parent="gdZSg_JXIYS8YBM3R42X-19">
          <mxGeometry x="85" y="20" width="60" height="30" as="geometry" />
        </mxCell>
        <mxCell id="gdZSg_JXIYS8YBM3R42X-10" value="snpc[63..0]" style="text;html=1;strokeColor=none;fillColor=none;align=center;verticalAlign=middle;whiteSpace=wrap;rounded=0;" vertex="1" parent="gdZSg_JXIYS8YBM3R42X-19">
          <mxGeometry x="160" width="60" height="30" as="geometry" />
        </mxCell>
        <mxCell id="gdZSg_JXIYS8YBM3R42X-12" value="pc[63..0]" style="text;html=1;strokeColor=none;fillColor=none;align=center;verticalAlign=middle;whiteSpace=wrap;rounded=0;" vertex="1" parent="gdZSg_JXIYS8YBM3R42X-19">
          <mxGeometry x="170" y="40" width="60" height="30" as="geometry" />
        </mxCell>
        <mxCell id="gdZSg_JXIYS8YBM3R42X-29" value="clk" style="text;html=1;strokeColor=none;fillColor=none;align=center;verticalAlign=middle;whiteSpace=wrap;rounded=0;" vertex="1" parent="gdZSg_JXIYS8YBM3R42X-19">
          <mxGeometry width="60" height="30" as="geometry" />
        </mxCell>
        <mxCell id="gdZSg_JXIYS8YBM3R42X-30" value="rst" style="text;html=1;strokeColor=none;fillColor=none;align=center;verticalAlign=middle;whiteSpace=wrap;rounded=0;" vertex="1" parent="gdZSg_JXIYS8YBM3R42X-19">
          <mxGeometry x="60" width="60" height="30" as="geometry" />
        </mxCell>
        <mxCell id="gdZSg_JXIYS8YBM3R42X-21" value="" style="shape=flexArrow;endArrow=classic;html=1;rounded=0;fontColor=#FF3333;fillColor=#000000;strokeColor=none;" edge="1" parent="1">
          <mxGeometry width="50" height="50" relative="1" as="geometry">
            <mxPoint x="530" y="210" as="sourcePoint" />
            <mxPoint x="530" y="280" as="targetPoint" />
          </mxGeometry>
        </mxCell>
        <mxCell id="gdZSg_JXIYS8YBM3R42X-24" value="&lt;font color=&quot;#ff3333&quot;&gt;Instmem&lt;/font&gt;" style="rounded=0;whiteSpace=wrap;html=1;fontColor=#000000;" vertex="1" parent="1">
          <mxGeometry x="500" y="280" width="160" height="90" as="geometry" />
        </mxCell>
        <mxCell id="gdZSg_JXIYS8YBM3R42X-27" value="snpc[63..0]" style="text;html=1;strokeColor=none;fillColor=none;align=center;verticalAlign=middle;whiteSpace=wrap;rounded=0;" vertex="1" parent="1">
          <mxGeometry x="650" y="110" width="50" height="20" as="geometry" />
        </mxCell>
        <mxCell id="gdZSg_JXIYS8YBM3R42X-28" value="pc[63..0]" style="text;html=1;strokeColor=none;fillColor=none;align=center;verticalAlign=middle;whiteSpace=wrap;rounded=0;" vertex="1" parent="1">
          <mxGeometry x="600" y="140" width="60" height="30" as="geometry" />
        </mxCell>
        <mxCell id="gdZSg_JXIYS8YBM3R42X-31" value="pc[63..0]" style="text;html=1;strokeColor=none;fillColor=none;align=center;verticalAlign=middle;whiteSpace=wrap;rounded=0;" vertex="1" parent="1">
          <mxGeometry x="500" y="280" width="60" height="30" as="geometry" />
        </mxCell>
        <mxCell id="gdZSg_JXIYS8YBM3R42X-34" style="edgeStyle=orthogonalEdgeStyle;rounded=0;orthogonalLoop=1;jettySize=auto;html=1;entryX=0.667;entryY=0;entryDx=0;entryDy=0;fontColor=#FF3333;fillColor=#000000;shape=flexArrow;strokeColor=none;entryPerimeter=0;" edge="1" parent="1" source="gdZSg_JXIYS8YBM3R42X-32" target="gdZSg_JXIYS8YBM3R42X-36">
          <mxGeometry relative="1" as="geometry" />
        </mxCell>
        <mxCell id="gdZSg_JXIYS8YBM3R42X-32" value="inst[31..20]" style="text;html=1;strokeColor=none;fillColor=none;align=center;verticalAlign=middle;whiteSpace=wrap;rounded=0;fontColor=#000000;" vertex="1" parent="1">
          <mxGeometry x="500" y="340" width="60" height="30" as="geometry" />
        </mxCell>
        <mxCell id="gdZSg_JXIYS8YBM3R42X-33" value="&lt;font color=&quot;#ff3333&quot;&gt;Immgen&lt;/font&gt;" style="rounded=0;whiteSpace=wrap;html=1;fontColor=#000000;" vertex="1" parent="1">
          <mxGeometry x="300" y="400" width="140" height="90" as="geometry" />
        </mxCell>
        <mxCell id="gdZSg_JXIYS8YBM3R42X-36" value="&lt;font color=&quot;#000000&quot;&gt;inst[31..20]&lt;/font&gt;" style="text;html=1;strokeColor=none;fillColor=none;align=center;verticalAlign=middle;whiteSpace=wrap;rounded=0;fontColor=#FF3333;" vertex="1" parent="1">
          <mxGeometry x="380" y="400" width="60" height="30" as="geometry" />
        </mxCell>
        <mxCell id="gdZSg_JXIYS8YBM3R42X-43" style="edgeStyle=orthogonalEdgeStyle;shape=flexArrow;rounded=0;orthogonalLoop=1;jettySize=auto;html=1;exitX=0.5;exitY=0;exitDx=0;exitDy=0;entryX=0.5;entryY=1;entryDx=0;entryDy=0;fontColor=#000000;fillColor=#000000;" edge="1" parent="1" source="gdZSg_JXIYS8YBM3R42X-37" target="gdZSg_JXIYS8YBM3R42X-39">
          <mxGeometry relative="1" as="geometry" />
        </mxCell>
        <mxCell id="gdZSg_JXIYS8YBM3R42X-37" value="imm[63..0]" style="text;html=1;strokeColor=none;fillColor=none;align=center;verticalAlign=middle;whiteSpace=wrap;rounded=0;fontColor=#000000;" vertex="1" parent="1">
          <mxGeometry x="300" y="400" width="60" height="30" as="geometry" />
        </mxCell>
        <mxCell id="gdZSg_JXIYS8YBM3R42X-44" value="&lt;font color=&quot;#ff3333&quot;&gt;GPR&lt;/font&gt;" style="whiteSpace=wrap;html=1;fontColor=#000000;" vertex="1" parent="1">
          <mxGeometry x="50" y="80" width="160" height="140" as="geometry" />
        </mxCell>
        <mxCell id="gdZSg_JXIYS8YBM3R42X-46" value="" style="endArrow=classic;html=1;rounded=0;fontColor=#FF3333;fillColor=#000000;" edge="1" parent="1">
          <mxGeometry width="50" height="50" relative="1" as="geometry">
            <mxPoint x="340" y="84.71000000000001" as="sourcePoint" />
            <mxPoint x="210" y="85.28" as="targetPoint" />
          </mxGeometry>
        </mxCell>
        <mxCell id="gdZSg_JXIYS8YBM3R42X-47" value="&lt;font color=&quot;#000000&quot;&gt;clk&lt;/font&gt;" style="text;html=1;align=center;verticalAlign=middle;resizable=0;points=[];autosize=1;strokeColor=none;fillColor=none;fontColor=#FF3333;" vertex="1" parent="1">
          <mxGeometry x="180" y="70" width="40" height="30" as="geometry" />
        </mxCell>
        <mxCell id="gdZSg_JXIYS8YBM3R42X-48" value="wen" style="text;html=1;align=center;verticalAlign=middle;resizable=0;points=[];autosize=1;strokeColor=none;fillColor=none;fontColor=#000000;" vertex="1" parent="1">
          <mxGeometry x="50" y="70" width="50" height="30" as="geometry" />
        </mxCell>
        <mxCell id="gdZSg_JXIYS8YBM3R42X-49" value="waddr" style="text;html=1;strokeColor=none;fillColor=none;align=center;verticalAlign=middle;whiteSpace=wrap;rounded=0;fontColor=#000000;" vertex="1" parent="1">
          <mxGeometry x="50" y="110" width="60" height="30" as="geometry" />
        </mxCell>
        <mxCell id="gdZSg_JXIYS8YBM3R42X-50" value="wdata" style="text;html=1;strokeColor=none;fillColor=none;align=center;verticalAlign=middle;whiteSpace=wrap;rounded=0;fontColor=#000000;" vertex="1" parent="1">
          <mxGeometry x="50" y="135" width="60" height="30" as="geometry" />
        </mxCell>
        <mxCell id="gdZSg_JXIYS8YBM3R42X-51" value="raddr1" style="text;html=1;align=center;verticalAlign=middle;resizable=0;points=[];autosize=1;strokeColor=none;fillColor=none;fontColor=#000000;" vertex="1" parent="1">
          <mxGeometry x="160" y="100" width="60" height="30" as="geometry" />
        </mxCell>
        <mxCell id="gdZSg_JXIYS8YBM3R42X-52" value="raddr2" style="text;html=1;align=center;verticalAlign=middle;resizable=0;points=[];autosize=1;strokeColor=none;fillColor=none;fontColor=#000000;" vertex="1" parent="1">
          <mxGeometry x="160" y="135" width="60" height="30" as="geometry" />
        </mxCell>
        <mxCell id="gdZSg_JXIYS8YBM3R42X-58" style="edgeStyle=orthogonalEdgeStyle;rounded=0;orthogonalLoop=1;jettySize=auto;html=1;fontColor=#000000;fillColor=#000000;entryX=0.25;entryY=1;entryDx=0;entryDy=0;shape=flexArrow;" edge="1" parent="1" source="gdZSg_JXIYS8YBM3R42X-53" target="gdZSg_JXIYS8YBM3R42X-40">
          <mxGeometry relative="1" as="geometry">
            <mxPoint x="250" y="400" as="targetPoint" />
            <Array as="points">
              <mxPoint x="100" y="400" />
              <mxPoint x="245" y="400" />
            </Array>
          </mxGeometry>
        </mxCell>
        <mxCell id="gdZSg_JXIYS8YBM3R42X-53" value="rdata1" style="text;html=1;align=center;verticalAlign=middle;resizable=0;points=[];autosize=1;strokeColor=none;fillColor=none;fontColor=#000000;" vertex="1" parent="1">
          <mxGeometry x="70" y="190" width="60" height="30" as="geometry" />
        </mxCell>
        <mxCell id="gdZSg_JXIYS8YBM3R42X-54" value="rdata2" style="text;html=1;align=center;verticalAlign=middle;resizable=0;points=[];autosize=1;strokeColor=none;fillColor=none;fontColor=#000000;" vertex="1" parent="1">
          <mxGeometry x="130" y="190" width="60" height="30" as="geometry" />
        </mxCell>
        <mxCell id="gdZSg_JXIYS8YBM3R42X-55" value="" style="endArrow=classic;html=1;rounded=0;fontColor=#000000;fillColor=#000000;" edge="1" parent="1">
          <mxGeometry width="50" height="50" relative="1" as="geometry">
            <mxPoint x="79.71000000000001" y="30" as="sourcePoint" />
            <mxPoint x="79.71000000000001" y="80" as="targetPoint" />
          </mxGeometry>
        </mxCell>
        <mxCell id="gdZSg_JXIYS8YBM3R42X-56" value="1" style="text;html=1;align=center;verticalAlign=middle;resizable=0;points=[];autosize=1;strokeColor=none;fillColor=none;fontColor=#000000;" vertex="1" parent="1">
          <mxGeometry x="60" y="10" width="30" height="30" as="geometry" />
        </mxCell>
      </root>
    </mxGraphModel>
  </diagram>
</mxfile>
